HIERARCHY
ROOT Hips
{
	OFFSET	0.00	0.00	0.00
	CHANNELS 6 Xposition Yposition Zposition Zrotation Xrotation Yrotation
	JOINT LeftUpLeg
	{
		OFFSET	 0.126116	-0.014019	-0.065224
		CHANNELS 3 Zrotation Xrotation Yrotation
		JOINT LeftLeg
		{
			OFFSET	 0.000000	 0.000000	 0.569914
			CHANNELS 3 Zrotation Xrotation Yrotation
			JOINT LeftFoot
			{
				OFFSET	 0.000000	 0.000000	 0.544423
				CHANNELS 3 Zrotation Xrotation Yrotation
				JOINT LeftToeBase
				{
					OFFSET	 0.000000	 0.000000	 0.207117
					CHANNELS 3 Zrotation Xrotation Yrotation
					End Site
					{
						OFFSET	 0.000000	 0.000000	 0.207117
					}
				}
			}
		}
	}
	JOINT RightUpLeg
	{
		OFFSET	-0.124023	-0.008373	-0.065224
		CHANNELS 3 Zrotation Xrotation Yrotation
		JOINT RightLeg
		{
			OFFSET	 0.000000	 0.000000	 0.570047
			CHANNELS 3 Zrotation Xrotation Yrotation
			JOINT RightFoot
			{
				OFFSET	 0.000000	 0.000000	 0.544354
				CHANNELS 3 Zrotation Xrotation Yrotation
				JOINT RightToeBase
				{
					OFFSET	 0.000000	 0.000000	 0.207540
					CHANNELS 3 Zrotation Xrotation Yrotation
					End Site
					{
						OFFSET	 0.000000	 0.000000	 0.207540
					}
				}
			}
		}
	}
	JOINT Spine
	{
		OFFSET	 0.000184	-0.007763	 0.117403
		CHANNELS 3 Zrotation Xrotation Yrotation
		JOINT Spine1
		{
			OFFSET	 0.000000	 0.000000	 0.137269
			CHANNELS 3 Zrotation Xrotation Yrotation
			JOINT Spine2
			{
				OFFSET	 0.000000	 0.000000	 0.156879
				CHANNELS 3 Zrotation Xrotation Yrotation
				JOINT LeftShoulder
				{
					OFFSET	 0.080501	-0.002496	 0.160144
					CHANNELS 3 Zrotation Xrotation Yrotation
					JOINT LeftArm
					{
						OFFSET	 0.000000	 0.000000	 0.164363
						CHANNELS 3 Zrotation Xrotation Yrotation
						JOINT LeftForeArm
						{
							OFFSET	 0.000000	 0.000000	 0.364576
							CHANNELS 3 Zrotation Xrotation Yrotation
							JOINT LeftHand
							{
								OFFSET	 0.000000	 0.000000	 0.360812
								CHANNELS 3 Zrotation Xrotation Yrotation
								JOINT LeftHandIndex1
								{
									OFFSET	 0.000000	 0.000000	 0.086006
									CHANNELS 3 Zrotation Xrotation Yrotation
									JOINT LeftHandIndex2
									{
										OFFSET	 0.000000	 0.000000	 0.047236
										CHANNELS 3 Zrotation Xrotation Yrotation
										JOINT LeftHandIndex3
										{
											OFFSET	-0.004284	-0.000551	 0.038166
											CHANNELS 3 Zrotation Xrotation Yrotation
											End Site
											{
												OFFSET	-0.004284	-0.000551	 0.038166
											}
										}
									}
								}
							}
						}
					}
				}
				JOINT Neck
				{
					OFFSET	 0.000000	 0.000000	 0.176489
					CHANNELS 3 Zrotation Xrotation Yrotation
					JOINT Head
					{
						OFFSET	 0.000000	-0.001747	 0.077940
						CHANNELS 3 Zrotation Xrotation Yrotation
						End Site
						{
							OFFSET	 0.000000	-0.001747	 0.077940
						}
					}
				}
				JOINT RightShoulder
				{
					OFFSET	-0.080363	 0.000306	 0.159706
					CHANNELS 3 Zrotation Xrotation Yrotation
					JOINT RightArm
					{
						OFFSET	 0.000000	 0.000000	 0.164196
						CHANNELS 3 Zrotation Xrotation Yrotation
						JOINT RightForeArm
						{
							OFFSET	 0.000000	 0.000000	 0.365611
							CHANNELS 3 Zrotation Xrotation Yrotation
							JOINT RightHand
							{
								OFFSET	 0.000000	 0.000000	 0.360648
								CHANNELS 3 Zrotation Xrotation Yrotation
								JOINT RightHandIndex1
								{
									OFFSET	 0.000000	 0.000000	 0.069977
									CHANNELS 3 Zrotation Xrotation Yrotation
									JOINT RightHandIndex2
									{
										OFFSET	 0.000000	 0.000000	 0.052305
										CHANNELS 3 Zrotation Xrotation Yrotation
										JOINT RightHandIndex3
										{
											OFFSET	 0.009002	-0.000782	 0.042196
											CHANNELS 3 Zrotation Xrotation Yrotation
											End Site
											{
												OFFSET	 0.009002	-0.000782	 0.042196
											}
										}
									}
								}
							}
						}
					}
				}
			}
		}
	}
}
MOTION
Frames:    8
Frame Time: 0.03333334
 0.012093	 0.058487	 1.197037	 5.776813	-0.694026	-3.415153	 0.297575	-13.807580	-171.485300	 1.288018	-40.303570	 0.605014	 51.591070	 80.978580	-55.839210	-2.368439	 31.773950	-0.073531	-7.777291	-31.633380	-175.160900	 12.695560	-53.136800	 10.834980	 69.100930	 83.666890	-66.949540	 2.359015	 32.993400	 0.103068	-1.437516	 8.308372	 1.047615	 0.691124	 1.902701	 2.197733	-5.281928	-2.527671	-2.453806	-94.121280	 58.982880	 174.995900	 23.411660	 41.760560	-26.283080	-1.781428	-1.593249	-15.932300	 1.959955	-4.183975	-8.086130	-4.864489	 19.388040	-2.800463	-3.869300	 21.628900	 2.190334	-4.804153	 5.593882	 0.144138	-0.036809	-5.106538	 0.234381	-7.112604	 2.031107	 2.170860	 89.710850	 61.767820	 179.829300	-19.338520	 52.797270	 8.579413	-2.058743	-2.965617	 14.379190	-5.133367	 11.459220	 0.323358	 6.275915	 23.523880	-0.552028	 2.045221	 43.376120	-7.134950	 0.805146	 23.039390	 3.429383
 0.011995	 0.048910	 1.194168	 6.299313	-0.001095	-3.638222	-0.089314	-14.360910	-171.276400	 1.538600	-40.848470	 0.775703	 53.123840	 81.211420	-57.575570	-2.366542	 32.081090	-0.080523	-8.802373	-33.639580	-175.047000	 13.844170	-52.410750	 11.664100	 114.393000	 81.268840	-113.907000	 2.360426	 32.783850	 0.098212	-1.693152	 7.770392	 1.062717	 0.747677	 1.718208	 2.438060	-5.400843	-2.548308	-2.546082	-94.295100	 58.989080	 174.624500	 23.610170	 40.966610	-26.064760	-2.375853	-1.590969	-17.711910	 2.171724	-4.726148	-8.023391	-4.852801	 19.660720	-2.813143	-3.855497	 21.804390	 2.176298	-4.797716	 5.669789	 0.139686	-0.012141	-5.155989	 0.290144	-7.145833	 1.996797	 2.113081	 89.609210	 61.901540	 179.584100	-18.732390	 53.265690	 7.506818	-2.958624	-3.260606	 14.609840	-5.459631	 12.054870	-0.317958	 6.251234	 21.995390	-0.594985	 2.194715	 42.073070	-7.266681	 1.145771	 21.492550	 3.266596
 0.011886	 0.021733	 1.188895	 6.637096	 0.743292	-4.174329	-0.323496	-13.925930	-170.851700	 1.781888	-41.292390	 0.943220	 56.054050	 81.662850	-60.678150	-2.358188	 33.348140	-0.109757	-7.383916	-36.696330	-174.143200	 13.788560	-49.666630	 11.188780	 139.227300	 70.680530	-140.530100	 2.351916	 33.998340	 0.126617	-1.955525	 6.930861	 1.356662	 0.845476	 2.314182	 2.650741	-5.497155	-2.828359	-2.635915	-94.478160	 58.960640	 174.239100	 22.686970	 39.179440	-26.012790	-3.468857	-1.461479	-20.630590	 1.729076	-5.221421	-7.209670	-4.824203	 20.247690	-2.822854	-3.823314	 22.210370	 2.143616	-4.769336	 6.003024	 0.120049	 0.025135	-5.284805	 0.344456	-7.161992	 1.904683	 2.028026	 89.438810	 62.052460	 179.169300	-17.341890	 54.103650	 5.202446	-4.944526	-3.889417	 14.906720	-5.941052	 12.836290	-2.278982	 6.193086	 18.906850	-0.715174	 2.551875	 38.688440	-7.576852	 1.805290	 18.386900	 2.973938
 0.010306	-0.018883	 1.182754	 7.035844	 0.757661	-4.372124	-0.985079	-11.865440	-170.958500	 2.257785	-41.407140	 1.260284	 50.097180	 81.355760	-54.897210	-2.323778	 37.536720	-0.211472	-6.014063	-38.494480	-173.368800	 13.379500	-44.096720	 9.941500	 130.163100	 70.729700	-132.633900	 2.336152	 35.979360	 0.174345	-2.719419	 7.010915	 1.447435	 0.904058	 2.773130	 2.794725	-5.502324	-3.225373	-2.732901	-94.538190	 58.996210	 174.105300	 20.112560	 37.396880	-26.591250	-3.568689	-1.521243	-21.913880	 1.240434	-6.595528	-7.716688	-4.853999	 20.529680	-3.078726	-3.783163	 22.710900	 2.102837	-4.712242	 6.668869	 0.080266	 0.126974	-5.421093	 0.330987	-6.999245	 1.947441	 1.684728	 89.357640	 61.877140	 178.979600	-15.567810	 54.719660	 1.847328	-6.617702	-4.439579	 15.137350	-5.792391	 12.478970	-4.163115	 6.169497	 15.680500	-0.617174	 2.907870	 34.887850	-7.878482	 2.456000	 15.186230	 2.716276
 0.005580	-0.070588	 1.174317	 7.413774	 0.422887	-3.593322	-1.780355	-8.888837	-172.344800	 2.229885	-41.781130	 1.250978	 32.256570	 78.707240	-36.445710	-2.198095	 46.926880	-0.479813	-4.667849	-38.822810	-173.616400	 8.761319	-36.455360	 5.690143	 79.826030	 79.472460	-78.981480	 2.340266	 35.490600	 0.162396	-3.710348	 7.025021	 0.733598	 0.995252	 4.031718	 2.815710	-5.534158	-3.693392	-2.905283	-94.471270	 59.326290	 174.193500	 17.282350	 35.528840	-28.860280	-3.768932	-1.384152	-21.135470	 0.499673	-7.683170	-8.235976	-4.889210	 20.685140	-3.332053	-3.756726	 23.036870	 2.075999	-4.639959	 7.502676	 0.029421	 0.238824	-5.477269	 0.251285	-6.741350	 2.110843	 1.743549	 89.354330	 61.485370	 178.986100	-14.100580	 54.927270	-1.249867	-7.916903	-4.801851	 15.072250	-6.074291	 11.725980	-5.411267	 6.248011	 12.538760	-0.088581	 3.102031	 32.613040	-8.039210	 3.030610	 12.256030	 2.516217
-0.001770	-0.134554	 1.159996	 8.977937	-0.730667	-2.248690	-1.889013	-4.373825	-175.033000	-0.175820	-42.508820	-0.357141	 13.923520	 67.133650	-14.409170	-1.791129	 60.687190	-1.080392	-1.633294	-39.853050	-172.986400	 7.151183	-31.779740	 4.184578	 5.316790	 66.856600	-0.090161	 2.336426	 35.947380	 0.173564	-5.379857	 7.406912	-0.506847	 0.832461	 6.321004	 2.696926	-5.758095	-4.348087	-3.179843	-94.359680	 59.085880	 174.471800	 15.058780	 33.046150	-31.116980	-4.196491	-1.277338	-22.064260	 0.371574	-6.277568	-7.982358	-4.880458	 21.007450	-3.388478	-3.721431	 23.467670	 2.040176	-4.552011	 8.503499	-0.033151	 0.384008	-5.390550	 0.282205	-6.543186	 2.592469	 2.158557	 89.165590	 61.307610	 178.548100	-12.778900	 54.934810	-3.558076	-8.236097	-4.860561	 14.966490	-6.554702	 10.797760	-4.557590	 6.350876	 9.465871	 0.420969	 3.337397	 29.644920	-8.229859	 3.498810	 9.803882	 2.373325
-0.010962	-0.195963	 1.143297	 10.309130	-1.398273	-0.881884	 1.212932	-0.283477	-179.142500	 1.639153	-42.906900	 0.875895	 4.875973	 47.263980	-0.997449	-1.184866	 69.482780	-1.803834	-2.848159	-43.736430	-174.212500	 7.561854	-32.175020	 4.452763	 1.543699	 52.212220	 3.861169	 2.358929	 33.006110	 0.103365	-6.425366	 7.502740	-1.293682	 0.386664	 8.140571	 1.739067	-6.023599	-4.840240	-3.026809	-94.170920	 59.630710	 174.793700	 14.132610	 31.717300	-32.994210	-3.304412	-1.797414	-23.945970	 1.412640	-4.566932	-8.678657	-4.794324	 21.342840	-2.986640	-3.652216	 24.298120	 1.969933	-4.492830	 9.168495	-0.075691	 0.374781	-5.353820	 0.206660	-6.565821	 3.066494	 2.226053	 89.007290	 60.552830	 178.221500	-11.877940	 54.299610	-6.107951	-6.794448	-4.954304	 16.611280	-5.762688	 9.666492	-2.677543	 6.384925	 8.744717	 0.564716	 3.388326	 28.970690	-8.270442	 3.663846	 8.927088	 2.327420
-0.020606	-0.274302	 1.127205	 8.960786	-2.043880	 0.437832	 9.998417	 5.230305	 174.583600	 0.091346	-40.224020	-0.168791	 6.667055	 32.716780	 1.806680	-2.358206	 33.345400	-0.109697	-3.042593	-45.015540	-177.023100	 5.726308	-31.692120	 3.417086	 2.176355	 45.757320	 4.981760	 2.373873	 30.567790	 0.047867	-5.806304	 7.956390	-2.132592	-0.089360	 8.346765	 1.186270	-5.875615	-4.738338	-3.081270	-94.044270	 59.763140	 175.049400	 13.015310	 31.157300	-33.321250	-1.986832	-2.517610	-25.098400	 1.959361	-3.859862	-8.276751	-4.736941	 21.841510	-2.798525	-3.578516	 25.162170	 1.895185	-4.425584	 9.915684	-0.124412	 0.271006	-5.409051	 0.176322	-6.687789	 3.178669	 2.405265	 89.093120	 60.264470	 178.433300	-11.785300	 53.950530	-7.669235	-5.466613	-4.549342	 16.690910	-4.648124	 8.028512	-0.972776	 6.407072	 10.162330	 0.646916	 3.287309	 30.296790	-8.189706	 3.561208	 9.473119	 2.355693
